<svg width="117" height="183" viewBox="0 0 117 183" fill="none" xmlns="http://www.w3.org/2000/svg">
<path d="M88.92 145L64.92 111.25C62.22 111.55 59.42 111.7 56.52 111.7H28.32V145H17.22V40H56.52C69.92 40 80.42 43.2 88.02 49.6C95.62 56 99.42 64.8 99.42 76C99.42 84.2 97.32 91.15 93.12 96.85C89.02 102.45 83.12 106.5 75.42 109L101.07 145H88.92ZM56.22 102.25C66.62 102.25 74.57 99.95 80.07 95.35C85.57 90.75 88.32 84.3 88.32 76C88.32 67.5 85.57 61 80.07 56.5C74.57 51.9 66.62 49.6 56.22 49.6H28.32V102.25H56.22Z" fill="white"/>
<circle cx="71.12" cy="68" r="8" fill="white"/>
<rect x="101.112" y="51.9119" width="11" height="98.5483" transform="rotate(37.5 101.112 51.9119)" fill="#FFA800"/>
<rect x="108.155" y="43" width="11" height="8.27088" transform="rotate(37.5 108.155 43)" fill="#FF83D5"/>
<path d="M36.4834 145.248L39.5531 133.424L47.1108 139.223L36.4834 145.248Z" fill="#FFC24B"/>
</svg>
