<svg width="367" height="183" viewBox="0 0 367 183" fill="none" xmlns="http://www.w3.org/2000/svg">
<path d="M60.82 109H67.92V135.7C64.6533 138.567 60.7867 140.767 56.32 142.3C51.8533 143.833 47.1533 144.6 42.22 144.6C35.22 144.6 28.92 143.067 23.32 140C17.72 136.933 13.32 132.7 10.12 127.3C6.92 121.833 5.32 115.733 5.32 109C5.32 102.267 6.92 96.2 10.12 90.8C13.32 85.3333 17.72 81.0667 23.32 78C28.92 74.9333 35.2533 73.4 42.32 73.4C47.6533 73.4 52.5533 74.2667 57.02 76C61.4867 77.6667 65.2533 80.1667 68.32 83.5L63.72 88.2C58.1867 82.7333 51.1533 80 42.62 80C36.9533 80 31.82 81.2667 27.22 83.8C22.6867 86.2667 19.12 89.7333 16.52 94.2C13.92 98.6 12.62 103.533 12.62 109C12.62 114.467 13.92 119.4 16.52 123.8C19.12 128.2 22.6867 131.667 27.22 134.2C31.7533 136.733 36.8533 138 42.52 138C49.72 138 55.82 136.2 60.82 132.6V109ZM95.7638 91C102.63 91 107.897 92.7333 111.564 96.2C115.23 99.6 117.064 104.667 117.064 111.4V144H110.264V135.8C108.664 138.533 106.297 140.667 103.164 142.2C100.097 143.733 96.4304 144.5 92.1638 144.5C86.2971 144.5 81.6304 143.1 78.1638 140.3C74.6971 137.5 72.9638 133.8 72.9638 129.2C72.9638 124.733 74.5638 121.133 77.7638 118.4C81.0304 115.667 86.1971 114.3 93.2638 114.3H109.964V111.1C109.964 106.567 108.697 103.133 106.164 100.8C103.63 98.4 99.9304 97.2 95.0638 97.2C91.7304 97.2 88.5304 97.7667 85.4638 98.9C82.3971 99.9667 79.7638 101.467 77.5638 103.4L74.3638 98.1C77.0304 95.8333 80.2304 94.1 83.9638 92.9C87.6971 91.6333 91.6304 91 95.7638 91ZM93.2638 138.9C97.2638 138.9 100.697 138 103.564 136.2C106.43 134.333 108.564 131.667 109.964 128.2V119.6H93.4638C84.4638 119.6 79.9638 122.733 79.9638 129C79.9638 132.067 81.1304 134.5 83.4638 136.3C85.7971 138.033 89.0638 138.9 93.2638 138.9ZM191.948 91C198.548 91 203.715 92.9 207.448 96.7C211.248 100.5 213.148 106.1 213.148 113.5V144H206.048V114.2C206.048 108.733 204.715 104.567 202.048 101.7C199.448 98.8333 195.748 97.4 190.948 97.4C185.481 97.4 181.181 99.1 178.048 102.5C174.915 105.833 173.348 110.467 173.348 116.4V144H166.248V114.2C166.248 108.733 164.915 104.567 162.248 101.7C159.648 98.8333 155.915 97.4 151.048 97.4C145.648 97.4 141.348 99.1 138.148 102.5C135.015 105.833 133.448 110.467 133.448 116.4V144H126.348V91.4H133.148V101C135.015 97.8 137.615 95.3333 140.948 93.6C144.281 91.8667 148.115 91 152.448 91C156.848 91 160.648 91.9333 163.848 93.8C167.115 95.6667 169.548 98.4333 171.148 102.1C173.081 98.6333 175.848 95.9333 179.448 94C183.115 92 187.281 91 191.948 91ZM268.203 119.9H224.203C224.603 125.367 226.703 129.8 230.503 133.2C234.303 136.533 239.103 138.2 244.903 138.2C248.169 138.2 251.169 137.633 253.903 136.5C256.636 135.3 259.003 133.567 261.003 131.3L265.003 135.9C262.669 138.7 259.736 140.833 256.203 142.3C252.736 143.767 248.903 144.5 244.703 144.5C239.303 144.5 234.503 143.367 230.303 141.1C226.169 138.767 222.936 135.567 220.603 131.5C218.269 127.433 217.103 122.833 217.103 117.7C217.103 112.567 218.203 107.967 220.403 103.9C222.669 99.8333 225.736 96.6667 229.603 94.4C233.536 92.1333 237.936 91 242.803 91C247.669 91 252.036 92.1333 255.903 94.4C259.769 96.6667 262.803 99.8333 265.003 103.9C267.203 107.9 268.303 112.5 268.303 117.7L268.203 119.9ZM242.803 97.1C237.736 97.1 233.469 98.7333 230.003 102C226.603 105.2 224.669 109.4 224.203 114.6H261.503C261.036 109.4 259.069 105.2 255.603 102C252.203 98.7333 247.936 97.1 242.803 97.1Z" fill="white"/>
<path d="M338.92 145L314.92 111.25C312.22 111.55 309.42 111.7 306.52 111.7H278.32V145H267.22V40H306.52C319.92 40 330.42 43.2 338.02 49.6C345.62 56 349.42 64.8 349.42 76C349.42 84.2 347.32 91.15 343.12 96.85C339.02 102.45 333.12 106.5 325.42 109L351.07 145H338.92ZM306.22 102.25C316.62 102.25 324.57 99.95 330.07 95.35C335.57 90.75 338.32 84.3 338.32 76C338.32 67.5 335.57 61 330.07 56.5C324.57 51.9 316.62 49.6 306.22 49.6H278.32V102.25H306.22Z" fill="white"/>
<circle cx="321.12" cy="68" r="8" fill="white"/>
<rect x="351.112" y="51.9119" width="11" height="98.5483" transform="rotate(37.5 351.112 51.9119)" fill="#FFA800"/>
<rect x="358.155" y="43" width="11" height="8.27088" transform="rotate(37.5 358.155 43)" fill="#FF83D5"/>
<path d="M286.483 145.248L289.553 133.424L297.111 139.223L286.483 145.248Z" fill="#FFC24B"/>
</svg>
